<mxfile host="app.diagrams.net" modified="2022-06-20T14:17:06.250Z" agent="5.0 (Windows NT 6.3; Win64; x64) AppleWebKit/537.36 (KHTML, like Gecko) Chrome/102.0.0.0 Safari/537.36" etag="e09xalBQ1xxa4AcFREOM" version="19.0.3" type="github">
  <diagram name="Page-1" id="97916047-d0de-89f5-080d-49f4d83e522f">
    <mxGraphModel dx="3350.5" dy="843" grid="1" gridSize="10" guides="1" tooltips="1" connect="1" arrows="1" fold="1" page="1" pageScale="1.5" pageWidth="1169" pageHeight="827" background="none" math="0" shadow="0">
      <root>
        <mxCell id="0" />
        <mxCell id="1" parent="0" />
        <mxCell id="3" value="Etil Alkol" style="rounded=1;fillColor=#10739E;strokeColor=none;shadow=1;gradientColor=none;fontStyle=1;fontColor=#FFFFFF;fontSize=14;" parent="1" vertex="1">
          <mxGeometry x="310" y="320" width="220" height="60" as="geometry" />
        </mxCell>
        <mxCell id="4" value="Office of &#xa;Workplace Solutions" style="rounded=1;fillColor=#10739E;strokeColor=none;shadow=1;gradientColor=none;fontStyle=1;fontColor=#FFFFFF;fontSize=14;" parent="1" vertex="1">
          <mxGeometry x="-50" y="430" width="200" height="60" as="geometry" />
        </mxCell>
        <mxCell id="5" value="Office of Public Relations" style="rounded=1;fillColor=#10739E;strokeColor=none;shadow=1;gradientColor=none;fontStyle=1;fontColor=#FFFFFF;fontSize=14;" parent="1" vertex="1">
          <mxGeometry x="190" y="430" width="200" height="60" as="geometry" />
        </mxCell>
        <mxCell id="6" value="Counsel Division" style="rounded=1;fillColor=#10739E;strokeColor=none;shadow=1;gradientColor=none;fontStyle=1;fontColor=#FFFFFF;fontSize=14;" parent="1" vertex="1">
          <mxGeometry x="520" y="430" width="200" height="60" as="geometry" />
        </mxCell>
        <mxCell id="7" value="FÃ¼" style="rounded=1;fillColor=#10739E;strokeColor=none;shadow=1;gradientColor=none;fontStyle=1;fontColor=#FFFFFF;fontSize=14;" parent="1" vertex="1">
          <mxGeometry x="920" y="430" width="200" height="60" as="geometry" />
        </mxCell>
        <mxCell id="8" value="Analysis &#xa;Division" style="rounded=1;fillColor=#10739E;strokeColor=none;shadow=1;gradientColor=none;fontStyle=1;fontColor=#FFFFFF;fontSize=14;" parent="1" vertex="1">
          <mxGeometry x="-70" y="600" width="200" height="60" as="geometry" />
        </mxCell>
        <mxCell id="9" value="Office of Global Support" style="rounded=1;fillColor=#10739E;strokeColor=none;shadow=1;gradientColor=none;fontStyle=1;fontColor=#FFFFFF;fontSize=14;" parent="1" vertex="1">
          <mxGeometry x="-70" y="680" width="200" height="60" as="geometry" />
        </mxCell>
        <mxCell id="10" value="Office of &#xa;Backtrack Analysis" style="rounded=1;fillColor=#10739E;strokeColor=none;shadow=1;gradientColor=none;fontStyle=1;fontColor=#FFFFFF;fontSize=14;" parent="1" vertex="1">
          <mxGeometry x="-70" y="770" width="200" height="60" as="geometry" />
        </mxCell>
        <mxCell id="11" value="Department of &#xa;Heuristic Support" style="rounded=1;fillColor=#10739E;strokeColor=none;shadow=1;gradientColor=none;fontStyle=1;fontColor=#FFFFFF;fontSize=14;" parent="1" vertex="1">
          <mxGeometry x="-70" y="860" width="200" height="60" as="geometry" />
        </mxCell>
        <mxCell id="12" value="Office of Intelligence &#xa;Support" style="rounded=1;fillColor=#10739E;strokeColor=none;shadow=1;gradientColor=none;fontStyle=1;fontColor=#FFFFFF;fontSize=14;" parent="1" vertex="1">
          <mxGeometry x="-70" y="950" width="200" height="60" as="geometry" />
        </mxCell>
        <mxCell id="13" value="IT&#xa;Division" style="rounded=1;fillColor=#10739E;strokeColor=none;shadow=1;gradientColor=none;fontStyle=1;fontColor=#FFFFFF;fontSize=14;" parent="1" vertex="1">
          <mxGeometry x="200" y="590" width="200" height="60" as="geometry" />
        </mxCell>
        <mxCell id="14" value="Database Administration" style="rounded=1;fillColor=#10739E;strokeColor=none;shadow=1;gradientColor=none;fontStyle=1;fontColor=#FFFFFF;fontSize=14;" parent="1" vertex="1">
          <mxGeometry x="200" y="680" width="200" height="60" as="geometry" />
        </mxCell>
        <mxCell id="15" value="Office of Technology &#xa;Research" style="rounded=1;fillColor=#10739E;strokeColor=none;shadow=1;gradientColor=none;fontStyle=1;fontColor=#FFFFFF;fontSize=14;" parent="1" vertex="1">
          <mxGeometry x="200" y="770" width="200" height="60" as="geometry" />
        </mxCell>
        <mxCell id="16" value="Office of&#xa;Data Services" style="rounded=1;fillColor=#10739E;strokeColor=none;shadow=1;gradientColor=none;fontStyle=1;fontColor=#FFFFFF;fontSize=14;" parent="1" vertex="1">
          <mxGeometry x="200" y="860" width="200" height="60" as="geometry" />
        </mxCell>
        <mxCell id="18" value="Management Programs &#xa;Division" style="rounded=1;fillColor=#10739E;strokeColor=none;shadow=1;gradientColor=none;fontStyle=1;fontColor=#FFFFFF;fontSize=14;" parent="1" vertex="1">
          <mxGeometry x="490" y="590" width="200" height="60" as="geometry" />
        </mxCell>
        <mxCell id="19" value="Office of Financial &#xa;Management" style="rounded=1;fillColor=#10739E;strokeColor=none;shadow=1;gradientColor=none;fontStyle=1;fontColor=#FFFFFF;fontSize=14;" parent="1" vertex="1">
          <mxGeometry x="490" y="680" width="200" height="60" as="geometry" />
        </mxCell>
        <mxCell id="20" value="Office of Human Resources" style="rounded=1;fillColor=#10739E;strokeColor=none;shadow=1;gradientColor=none;fontStyle=1;fontColor=#FFFFFF;fontSize=14;" parent="1" vertex="1">
          <mxGeometry x="490" y="770" width="200" height="60" as="geometry" />
        </mxCell>
        <mxCell id="21" value="Office of Management " style="rounded=1;fillColor=#10739E;strokeColor=none;shadow=1;gradientColor=none;fontStyle=1;fontColor=#FFFFFF;fontSize=14;" parent="1" vertex="1">
          <mxGeometry x="490" y="860" width="200" height="60" as="geometry" />
        </mxCell>
        <mxCell id="22" value="Office of Training Services" style="rounded=1;fillColor=#10739E;strokeColor=none;shadow=1;gradientColor=none;fontStyle=1;fontColor=#FFFFFF;fontSize=14;" parent="1" vertex="1">
          <mxGeometry x="490" y="950" width="200" height="60" as="geometry" />
        </mxCell>
        <mxCell id="23" value="Regulatory &#xa;and Enforcement Division" style="rounded=1;fillColor=#10739E;strokeColor=none;shadow=1;gradientColor=none;fontStyle=1;fontColor=#FFFFFF;fontSize=14;" parent="1" vertex="1">
          <mxGeometry x="740" y="590" width="200" height="60" as="geometry" />
        </mxCell>
        <mxCell id="24" value="Office of Regulatory Policy" style="rounded=1;fillColor=#10739E;strokeColor=none;shadow=1;gradientColor=none;fontStyle=1;fontColor=#FFFFFF;fontSize=14;" parent="1" vertex="1">
          <mxGeometry x="740" y="680" width="200" height="60" as="geometry" />
        </mxCell>
        <mxCell id="25" value="Office Compliance" style="rounded=1;fillColor=#10739E;strokeColor=none;shadow=1;gradientColor=none;fontStyle=1;fontColor=#FFFFFF;fontSize=14;" parent="1" vertex="1">
          <mxGeometry x="740" y="770" width="200" height="60" as="geometry" />
        </mxCell>
        <mxCell id="26" value="Office of &#xa;Enforcement" style="rounded=1;fillColor=#10739E;strokeColor=none;shadow=1;gradientColor=none;fontStyle=1;fontColor=#FFFFFF;fontSize=14;" parent="1" vertex="1">
          <mxGeometry x="740" y="860" width="200" height="60" as="geometry" />
        </mxCell>
        <mxCell id="27" value="Office of&#xa; Regulatory Support" style="rounded=1;fillColor=#10739E;strokeColor=none;shadow=1;gradientColor=none;fontStyle=1;fontColor=#FFFFFF;fontSize=14;" parent="1" vertex="1">
          <mxGeometry x="740" y="950" width="200" height="60" as="geometry" />
        </mxCell>
        <mxCell id="30" value="" style="edgeStyle=elbowEdgeStyle;elbow=vertical;strokeWidth=4;endArrow=block;endFill=1;fontStyle=1;strokeColor=#23445D;" parent="1" source="3" target="5" edge="1">
          <mxGeometry x="-330" y="140" width="100" height="100" as="geometry">
            <mxPoint x="-330" y="240" as="sourcePoint" />
            <mxPoint x="-230" y="140" as="targetPoint" />
          </mxGeometry>
        </mxCell>
        <mxCell id="31" value="" style="edgeStyle=elbowEdgeStyle;elbow=vertical;strokeWidth=4;endArrow=block;endFill=1;fontStyle=1;strokeColor=#23445D;" parent="1" source="3" target="4" edge="1">
          <mxGeometry x="-330" y="140" width="100" height="100" as="geometry">
            <mxPoint x="-330" y="240" as="sourcePoint" />
            <mxPoint x="-230" y="140" as="targetPoint" />
          </mxGeometry>
        </mxCell>
        <mxCell id="32" value="" style="edgeStyle=elbowEdgeStyle;elbow=vertical;strokeWidth=4;endArrow=block;endFill=1;fontStyle=1;strokeColor=#23445D;" parent="1" source="3" target="6" edge="1">
          <mxGeometry x="-330" y="140" width="100" height="100" as="geometry">
            <mxPoint x="-330" y="240" as="sourcePoint" />
            <mxPoint x="-230" y="140" as="targetPoint" />
          </mxGeometry>
        </mxCell>
        <mxCell id="34" value="" style="edgeStyle=elbowEdgeStyle;elbow=vertical;strokeWidth=4;endArrow=block;endFill=1;fontStyle=1;strokeColor=#23445D;" parent="1" source="3" target="8" edge="1">
          <mxGeometry x="-330" y="140" width="100" height="100" as="geometry">
            <mxPoint x="-330" y="240" as="sourcePoint" />
            <mxPoint x="-230" y="140" as="targetPoint" />
            <Array as="points">
              <mxPoint x="200" y="530" />
            </Array>
          </mxGeometry>
        </mxCell>
        <mxCell id="37" value="" style="edgeStyle=elbowEdgeStyle;elbow=vertical;strokeWidth=4;endArrow=block;endFill=1;fontStyle=1;strokeColor=#23445D;" parent="1" source="3" target="23" edge="1">
          <mxGeometry x="-330" y="140" width="100" height="100" as="geometry">
            <mxPoint x="-330" y="240" as="sourcePoint" />
            <mxPoint x="-230" y="140" as="targetPoint" />
            <Array as="points">
              <mxPoint x="620" y="530" />
            </Array>
          </mxGeometry>
        </mxCell>
        <mxCell id="38" value="" style="edgeStyle=elbowEdgeStyle;elbow=vertical;strokeWidth=4;endArrow=block;endFill=1;fontStyle=1;strokeColor=#23445D;" parent="1" source="8" target="9" edge="1">
          <mxGeometry x="-290" y="140" width="100" height="100" as="geometry">
            <mxPoint x="-290" y="240" as="sourcePoint" />
            <mxPoint x="-190" y="140" as="targetPoint" />
          </mxGeometry>
        </mxCell>
        <mxCell id="39" value="" style="edgeStyle=elbowEdgeStyle;elbow=vertical;strokeWidth=4;endArrow=block;endFill=1;fontStyle=1;strokeColor=#23445D;" parent="1" source="9" target="10" edge="1">
          <mxGeometry x="-290" y="150" width="100" height="100" as="geometry">
            <mxPoint x="-290" y="250" as="sourcePoint" />
            <mxPoint x="-190" y="150" as="targetPoint" />
          </mxGeometry>
        </mxCell>
        <mxCell id="40" value="" style="edgeStyle=elbowEdgeStyle;elbow=vertical;strokeWidth=4;endArrow=block;endFill=1;fontStyle=1;strokeColor=#23445D;" parent="1" source="10" target="11" edge="1">
          <mxGeometry x="-290" y="160" width="100" height="100" as="geometry">
            <mxPoint x="-290" y="260" as="sourcePoint" />
            <mxPoint x="-190" y="160" as="targetPoint" />
          </mxGeometry>
        </mxCell>
        <mxCell id="41" value="" style="edgeStyle=elbowEdgeStyle;elbow=vertical;strokeWidth=4;endArrow=block;endFill=1;fontStyle=1;strokeColor=#23445D;" parent="1" source="11" target="12" edge="1">
          <mxGeometry x="-290" y="170" width="100" height="100" as="geometry">
            <mxPoint x="-290" y="270" as="sourcePoint" />
            <mxPoint x="-190" y="170" as="targetPoint" />
          </mxGeometry>
        </mxCell>
        <mxCell id="42" value="" style="edgeStyle=elbowEdgeStyle;elbow=vertical;strokeWidth=4;endArrow=block;endFill=1;fontStyle=1;strokeColor=#23445D;" parent="1" source="13" target="14" edge="1">
          <mxGeometry x="-290" y="140" width="100" height="100" as="geometry">
            <mxPoint x="-290" y="240" as="sourcePoint" />
            <mxPoint x="-190" y="140" as="targetPoint" />
          </mxGeometry>
        </mxCell>
        <mxCell id="43" value="" style="edgeStyle=elbowEdgeStyle;elbow=vertical;strokeWidth=4;endArrow=block;endFill=1;fontStyle=1;strokeColor=#23445D;" parent="1" source="14" target="15" edge="1">
          <mxGeometry x="-290" y="150" width="100" height="100" as="geometry">
            <mxPoint x="-290" y="250" as="sourcePoint" />
            <mxPoint x="-190" y="150" as="targetPoint" />
          </mxGeometry>
        </mxCell>
        <mxCell id="44" value="" style="edgeStyle=elbowEdgeStyle;elbow=vertical;strokeWidth=4;endArrow=block;endFill=1;fontStyle=1;strokeColor=#23445D;" parent="1" source="15" target="16" edge="1">
          <mxGeometry x="-290" y="160" width="100" height="100" as="geometry">
            <mxPoint x="-290" y="260" as="sourcePoint" />
            <mxPoint x="-190" y="160" as="targetPoint" />
          </mxGeometry>
        </mxCell>
        <mxCell id="46" value="" style="edgeStyle=elbowEdgeStyle;elbow=vertical;strokeWidth=4;endArrow=block;endFill=1;fontStyle=1;strokeColor=#23445D;" parent="1" source="18" target="19" edge="1">
          <mxGeometry x="-280" y="140" width="100" height="100" as="geometry">
            <mxPoint x="-280" y="240" as="sourcePoint" />
            <mxPoint x="-180" y="140" as="targetPoint" />
          </mxGeometry>
        </mxCell>
        <mxCell id="47" value="" style="edgeStyle=elbowEdgeStyle;elbow=vertical;strokeWidth=4;endArrow=block;endFill=1;fontStyle=1;strokeColor=#23445D;" parent="1" source="19" target="20" edge="1">
          <mxGeometry x="-280" y="150" width="100" height="100" as="geometry">
            <mxPoint x="-280" y="250" as="sourcePoint" />
            <mxPoint x="-180" y="150" as="targetPoint" />
          </mxGeometry>
        </mxCell>
        <mxCell id="48" value="" style="edgeStyle=elbowEdgeStyle;elbow=vertical;strokeWidth=4;endArrow=block;endFill=1;fontStyle=1;strokeColor=#23445D;" parent="1" source="20" target="21" edge="1">
          <mxGeometry x="-280" y="160" width="100" height="100" as="geometry">
            <mxPoint x="-280" y="260" as="sourcePoint" />
            <mxPoint x="-180" y="160" as="targetPoint" />
          </mxGeometry>
        </mxCell>
        <mxCell id="49" value="" style="edgeStyle=elbowEdgeStyle;elbow=vertical;strokeWidth=4;endArrow=block;endFill=1;fontStyle=1;strokeColor=#23445D;" parent="1" source="21" target="22" edge="1">
          <mxGeometry x="-280" y="170" width="100" height="100" as="geometry">
            <mxPoint x="-280" y="270" as="sourcePoint" />
            <mxPoint x="-180" y="170" as="targetPoint" />
          </mxGeometry>
        </mxCell>
        <mxCell id="50" value="" style="edgeStyle=elbowEdgeStyle;elbow=vertical;strokeWidth=4;endArrow=block;endFill=1;fontStyle=1;strokeColor=#23445D;" parent="1" source="23" target="24" edge="1">
          <mxGeometry x="-280" y="140" width="100" height="100" as="geometry">
            <mxPoint x="-280" y="240" as="sourcePoint" />
            <mxPoint x="-180" y="140" as="targetPoint" />
          </mxGeometry>
        </mxCell>
        <mxCell id="51" value="" style="edgeStyle=elbowEdgeStyle;elbow=vertical;strokeWidth=4;endArrow=block;endFill=1;fontStyle=1;strokeColor=#23445D;" parent="1" source="24" target="25" edge="1">
          <mxGeometry x="-280" y="150" width="100" height="100" as="geometry">
            <mxPoint x="-280" y="250" as="sourcePoint" />
            <mxPoint x="-180" y="150" as="targetPoint" />
          </mxGeometry>
        </mxCell>
        <mxCell id="52" value="" style="edgeStyle=elbowEdgeStyle;elbow=vertical;strokeWidth=4;endArrow=block;endFill=1;fontStyle=1;strokeColor=#23445D;" parent="1" source="25" target="26" edge="1">
          <mxGeometry x="-280" y="160" width="100" height="100" as="geometry">
            <mxPoint x="-280" y="260" as="sourcePoint" />
            <mxPoint x="-180" y="160" as="targetPoint" />
          </mxGeometry>
        </mxCell>
        <mxCell id="53" value="" style="edgeStyle=elbowEdgeStyle;elbow=vertical;strokeWidth=4;endArrow=block;endFill=1;fontStyle=1;strokeColor=#23445D;" parent="1" source="26" target="27" edge="1">
          <mxGeometry x="-280" y="170" width="100" height="100" as="geometry">
            <mxPoint x="-280" y="270" as="sourcePoint" />
            <mxPoint x="-180" y="170" as="targetPoint" />
          </mxGeometry>
        </mxCell>
        <mxCell id="54" value="" style="edgeStyle=elbowEdgeStyle;elbow=vertical;strokeWidth=4;endArrow=block;endFill=1;fontStyle=1;strokeColor=#23445D;" parent="1" source="3" target="13" edge="1">
          <mxGeometry x="-330" y="140" width="100" height="100" as="geometry">
            <mxPoint x="-330" y="240" as="sourcePoint" />
            <mxPoint x="-230" y="140" as="targetPoint" />
            <Array as="points">
              <mxPoint x="300" y="530" />
            </Array>
          </mxGeometry>
        </mxCell>
        <mxCell id="55" value="" style="edgeStyle=elbowEdgeStyle;elbow=vertical;strokeWidth=4;endArrow=block;endFill=1;fontStyle=1;strokeColor=#23445D;" parent="1" source="3" target="18" edge="1">
          <mxGeometry x="-330" y="140" width="100" height="100" as="geometry">
            <mxPoint x="-330" y="240" as="sourcePoint" />
            <mxPoint x="-230" y="140" as="targetPoint" />
            <Array as="points">
              <mxPoint x="590" y="530" />
            </Array>
          </mxGeometry>
        </mxCell>
      </root>
    </mxGraphModel>
  </diagram>
</mxfile>
